<svg width="336" height="118" viewBox="0 0 336 118" fill="none" xmlns="http://www.w3.org/2000/svg">
<g clip-path="url(#clip0_825_9775)">
<path d="M122.851 20.7963C113.495 13.6721 101.829 10.1897 90.0584 11.0068C78.2875 11.824 67.2262 16.8842 58.9641 25.2315C52.9992 21.8157 46.232 20.0154 39.3425 20.0116C32.453 20.0079 25.6839 21.8007 19.7152 25.21C13.7464 28.6193 8.78837 33.5251 5.33911 39.4343C1.88985 45.3435 0.0708808 52.0481 0.0649559 58.8745C0.059031 65.7008 1.86636 72.4085 5.30536 78.3236C8.74435 84.2387 13.6939 89.1528 19.6567 92.5723C25.6195 95.9918 32.3855 97.7962 39.275 97.8041C46.1645 97.8121 52.9348 96.0234 58.9056 92.6177C67.1562 100.98 78.2127 106.059 89.9855 106.893C101.758 107.727 113.432 104.26 122.799 97.1456C128.356 103.622 135.27 108.821 143.061 112.38C150.852 115.939 159.333 117.772 167.912 117.751C176.491 117.731 184.963 115.858 192.736 112.262C200.51 108.667 207.4 103.435 212.925 96.9323C222.286 104.151 234.003 107.701 245.838 106.905C257.673 106.109 268.798 101.023 277.09 92.6177C283.061 96.0241 289.831 97.8135 296.721 97.8062C303.61 97.7988 310.377 95.995 316.34 92.5759C322.303 89.1568 327.253 84.2429 330.693 78.3279C334.133 72.4129 335.94 65.7051 335.935 58.8785C335.93 52.0519 334.111 45.347 330.662 39.4373C327.213 33.5277 322.255 28.6216 316.286 25.2118C310.318 21.8021 303.548 20.0088 296.658 20.0123C289.769 20.0158 283.001 21.8158 277.036 25.2315C268.732 16.841 257.601 11.7731 245.767 10.9949C233.933 10.2166 222.224 13.7824 212.873 21.0119C207.349 14.5254 200.466 9.30817 192.701 5.72264C184.937 2.13711 176.478 0.269222 167.912 0.248706C159.346 0.22819 150.879 2.05554 143.097 5.60384C135.316 9.15214 128.407 14.3363 122.851 20.7963Z" fill="white"/>
<path d="M122.851 20.7963C113.495 13.6721 101.829 10.1897 90.0584 11.0068C78.2875 11.824 67.2262 16.8842 58.9641 25.2315C52.9992 21.8157 46.232 20.0154 39.3425 20.0116C32.453 20.0079 25.6839 21.8007 19.7152 25.21C13.7464 28.6193 8.78837 33.5251 5.33911 39.4343C1.88985 45.3435 0.0708808 52.0481 0.0649559 58.8745C0.059031 65.7008 1.86636 72.4085 5.30536 78.3236C8.74435 84.2387 13.6939 89.1528 19.6567 92.5723C25.6195 95.9918 32.3855 97.7962 39.275 97.8041C46.1645 97.8121 52.9348 96.0234 58.9056 92.6177C67.1562 100.98 78.2127 106.059 89.9855 106.893C101.758 107.727 113.432 104.26 122.799 97.1456C128.356 103.622 135.27 108.821 143.061 112.38C150.852 115.939 159.333 117.772 167.912 117.751C176.491 117.731 184.963 115.858 192.736 112.262C200.51 108.667 207.4 103.435 212.925 96.9323C222.286 104.151 234.003 107.701 245.838 106.905C257.673 106.109 268.798 101.023 277.09 92.6177C283.061 96.0241 289.831 97.8135 296.721 97.8062C303.61 97.7988 310.377 95.995 316.34 92.5759C322.303 89.1568 327.253 84.2429 330.693 78.3279C334.133 72.4129 335.94 65.7051 335.935 58.8785C335.929 52.0519 334.111 45.347 330.662 39.4373C327.213 33.5277 322.255 28.6216 316.286 25.2118C310.317 21.8021 303.548 20.0088 296.658 20.0123C289.769 20.0158 283.001 21.8158 277.036 25.2315C268.732 16.841 257.601 11.7731 245.767 10.9949C233.933 10.2166 222.224 13.7824 212.873 21.0119C207.349 14.5254 200.466 9.30817 192.701 5.72264C184.937 2.13711 176.478 0.269222 167.912 0.248706C159.346 0.22819 150.879 2.05554 143.097 5.60384C135.316 9.15214 128.407 14.3363 122.851 20.7963" stroke="#4E3E30" stroke-width="0.5" stroke-miterlimit="10"/>
<path d="M196.611 63.4399C196.497 64.0334 196.401 64.933 196.141 66.1734C195.198 70.7453 193.775 73.0613 191.805 73.0613C190.729 73.0613 190.036 72.2708 189.931 70.7453C189.844 69.5582 190.062 63.6904 191.223 53.2484C191.326 52.2538 191.428 51.338 191.529 50.4617C192.701 50.5798 193.878 50.719 195.048 50.8673C195.68 50.9462 196.328 51.0227 196.983 51.0968C196.674 55.6827 196.532 59.7932 196.611 63.44V63.4399ZM187.432 67.7545C187.142 71.7027 186.517 73.6224 184.549 73.6224C183.407 73.6224 182.572 72.607 182.431 70.6339C181.964 64.0288 184.02 59.0606 186.054 59.0606C186.773 59.1168 187.458 59.393 188.012 59.8511L187.432 67.7545ZM213.549 42.7042C213.211 42.5497 212.832 42.5047 212.467 42.5755C212.102 42.6462 211.768 42.8292 211.514 43.0984C211.063 43.5523 210.76 44.1284 210.641 44.7537C210.553 45.1947 210.503 45.6421 210.491 46.0914C210.48 46.3878 210.576 46.6784 210.76 46.9121C210.788 46.9298 210.82 46.9398 210.853 46.941C210.886 46.9423 210.918 46.9347 210.947 46.9191C211.131 46.801 211.26 46.6161 211.308 46.4043C211.514 45.5765 211.831 44.7797 212.251 44.035C212.329 43.9285 212.443 43.8536 212.572 43.8242C212.702 43.7948 212.838 43.8128 212.955 43.875C213.273 44.0374 213.561 44.6934 213.439 45.7622C213.36 46.403 213.119 47.0137 212.738 47.5379C212.358 48.0622 211.851 48.4832 211.263 48.7622C207.931 50.3457 203.858 50.0999 199.529 49.5829V49.5783C199.667 47.0373 199.94 45.5141 199.899 44.8905C199.838 44.1022 199.552 43.6524 198.916 43.6524C197.629 43.6524 197.421 45.5211 197.034 49.2699C195.27 49.0474 193.494 48.8317 191.73 48.7181C192.135 46.1254 192.371 43.5094 192.437 40.8866C192.376 39.9801 191.898 39.5303 191.262 39.5303C189.725 39.5303 189.43 42.4584 188.969 48.644C185.396 48.5571 181.882 49.5599 178.903 51.5167C178.893 51.5204 178.884 51.5251 178.875 51.5306C178.844 51.5521 178.819 51.5806 178.801 51.6137C178.784 51.6467 178.775 51.6835 178.775 51.7208C178.774 51.7643 178.786 51.807 178.81 51.8436C178.84 51.8949 178.89 51.9325 178.948 51.9485C179.006 51.9644 179.068 51.9576 179.121 51.9294C182.15 50.5049 185.513 49.9238 188.85 50.2485C188.669 52.6782 188.452 55.5345 188.131 58.8359C187.469 58.3612 186.674 58.1041 185.857 58.1009C182.775 58.1009 179.617 62.5542 179.701 68.3344C178.718 71.2184 177.342 72.718 175.856 72.718C175.62 72.7345 175.382 72.7007 175.16 72.6186C174.938 72.5366 174.736 72.4084 174.568 72.2425C174.4 72.0767 174.27 71.8771 174.186 71.6572C174.102 71.4372 174.067 71.2021 174.083 70.9676C173.929 68.8231 174.64 66.3424 174.457 63.7435C174.282 61.3162 173.135 59.8046 171.612 59.8046C169.074 59.8046 167.95 62.3919 166.717 67.3579C166.785 66.1734 166.785 64.986 166.717 63.8015C166.672 62.0951 166.142 60.4358 165.189 59.014C164.658 58.3788 164.384 58.2305 164.703 60.0202C165.01 62.0679 165.09 64.1429 164.941 66.2079C164.915 66.3309 164.894 66.4421 164.864 66.5697C163.888 70.6894 161.942 72.7784 160.479 72.7784C159.405 72.7784 158.837 71.9854 158.731 70.4623C158.425 66.1732 159.761 62.6168 159.611 60.5302C159.571 59.9622 159.358 59.6816 158.853 59.6816C157.075 59.6816 157.246 62.0534 156.071 67.868C155.411 71.0858 154.201 72.8339 153.062 72.8339C152.3 72.8339 151.812 72.2126 151.731 71.0858C151.398 66.3981 152.308 63.1825 152.222 61.9422C152.166 61.1469 151.698 60.813 150.68 60.813C150.046 60.813 150.023 61.3162 149.852 62.5029C149.469 65.043 149.311 67.6116 149.382 70.1791C149.571 72.8331 150.746 74.1876 152.456 74.1876C153.919 74.1876 155.411 72.887 156.429 70.2347C156.733 72.7177 157.699 73.7934 159.92 73.7934C161.722 73.7934 163.292 72.6295 164.544 70.3575C164.354 71.781 164.179 72.7176 164.179 72.7176L164.176 73.114C164.232 73.907 164.548 74.3566 165.625 74.3566C166.198 74.3566 166.556 74.0761 166.6 73.7352L166.879 71.4215C167.578 65.2128 169.651 61.3156 171.046 61.3156C171.617 61.3156 172.029 61.77 172.097 62.7321C172.291 65.4399 171.575 67.8674 171.731 70.0652C171.914 72.6062 173.021 73.9068 175.241 73.9068C177.106 73.9068 178.704 72.7383 179.898 70.4269C180.461 73.0721 182.2 74.5837 184.364 74.5837C185.951 74.5837 187.027 73.6818 187.909 71.8179C188.109 72.5665 188.565 73.223 189.199 73.6755C189.833 74.1279 190.606 74.3482 191.386 74.2986C193.483 74.2986 195.39 72.5528 196.475 69.1077C196.623 68.6417 196.747 68.2031 196.856 67.7793C197.327 72.1101 198.967 74.2986 201.606 74.2986C204.143 74.2986 206.01 71.9848 207.388 67.246C207.964 65.5992 208.354 63.8943 208.551 62.1624C208.55 62.1018 208.537 62.0419 208.512 61.9864C208.487 61.9308 208.452 61.8807 208.407 61.8389C208.363 61.797 208.31 61.7644 208.253 61.7427C208.196 61.7211 208.135 61.7109 208.074 61.7127C207.374 61.7127 207.47 63.0667 206.506 66.4561C205.296 70.8588 203.867 73.0605 202.217 73.0612C200.12 73.0612 199.522 70.8588 199.192 66.2266C198.888 61.2618 198.969 56.2813 199.433 51.3286C202.526 51.6809 205.657 51.5115 208.693 50.8279C213.621 49.3468 214.44 46.9237 214.623 45.4144C214.736 44.908 214.695 44.3795 214.504 43.8966C214.312 43.4136 213.98 42.9984 213.548 42.7042H213.549ZM141.515 73.5091C140.69 73.4577 139.914 73.1074 139.333 72.525C138.753 71.9426 138.409 71.1688 138.367 70.3513C138.318 69.6164 138.492 67.6411 138.653 64.5392C138.661 63.2301 138.802 61.9253 139.074 60.6443C139.598 59.0608 140.619 58.2702 141.826 58.2702C143.665 58.2702 145.13 60.1342 145.371 63.5214C145.794 69.4472 143.798 73.5091 141.515 73.5091H141.515ZM138.81 38.7769C138.927 38.1365 139.174 37.5265 139.538 36.9847C139.734 36.7841 139.988 36.6495 140.265 36.6C140.542 36.5505 140.828 36.5886 141.082 36.7089C141.789 37.1053 142.327 38.5219 141.944 40.7916C141.753 41.9405 141.316 43.0355 140.661 44.0026C140.007 44.9698 139.151 45.7866 138.151 46.3979C138.197 43.8459 138.418 41.2999 138.81 38.7773V38.7769ZM141.948 57.3128C141.247 57.3397 140.565 57.546 139.967 57.9116C139.37 58.2772 138.879 58.7898 138.541 59.3993L138.415 57.5933C138.144 53.7587 138.078 50.5408 138.118 47.8561C138.513 47.6602 138.896 47.4411 139.264 47.2001C140.479 46.4056 141.512 45.3681 142.297 44.1543C143.082 42.9405 143.603 41.5774 143.825 40.1524C144.234 37.8108 143.539 35.6709 142.096 34.8317C141.503 34.5333 140.83 34.4284 140.174 34.5321C139.517 34.6358 138.91 34.9427 138.441 35.4089C137.496 36.3712 136.839 37.5742 136.543 38.8842C135.947 41.7541 135.641 44.6759 135.63 47.606C133.666 48.2727 131.587 48.5408 129.516 48.3943C129.458 48.3891 129.399 48.4064 129.353 48.4427C129.307 48.4789 129.276 48.5313 129.268 48.589C129.266 48.6004 129.264 48.6121 129.263 48.6238C129.264 48.6764 129.282 48.7275 129.315 48.7686C129.348 48.8098 129.394 48.8388 129.446 48.8509C129.463 48.8545 129.48 48.8569 129.497 48.858C131.511 49.3038 133.602 49.2752 135.602 48.7745C135.588 50.5851 135.642 52.5535 135.792 54.6609C135.953 56.9167 136.259 59.4553 136.449 62.1099C136.938 68.9398 136.201 72.8881 135.885 73.7945C134.498 77.7567 137.666 73.8525 137.923 72.0998C138.281 72.796 138.821 73.3839 139.487 73.8016C140.153 74.2194 140.921 74.4516 141.709 74.4739C145.2 74.4739 148.317 70.1245 147.9 64.2544C147.591 59.9098 145.184 57.3131 141.948 57.3131" fill="#4E3E30"/>
<path d="M229.07 60.3983C228.907 62.682 227.437 64.9864 224.524 64.9864C222.526 64.9864 220.233 64.2678 220.233 58.641C220.233 54.3752 221.669 52.2121 224.503 52.2121C225.596 52.2334 226.643 52.6511 227.446 53.386C228.249 54.1209 228.752 55.122 228.86 56.1998L228.874 56.4826H229.866L229.857 56.1766C229.847 55.9516 229.833 55.6967 229.815 55.4184C229.786 54.9314 229.751 54.3822 229.751 53.8489C229.751 53.5753 229.747 53.3041 229.742 53.0491C229.733 52.5808 229.726 52.175 229.751 51.8806L229.779 51.5583H228.757L228.731 51.8267C228.708 52.0888 228.626 52.3971 228.49 52.3971C228.129 52.3341 227.784 52.2035 227.473 52.0123C226.57 51.49 225.548 51.2028 224.503 51.1773C223.516 51.1476 222.533 51.3219 221.618 51.6894C220.702 52.0568 219.874 52.6092 219.186 53.3114C218.498 54.0135 217.966 54.85 217.622 55.7675C217.279 56.685 217.132 57.6633 217.191 58.6402C217.191 63.182 220.034 66.0011 224.608 66.0011C225.721 65.9539 226.807 65.6456 227.776 65.1016C228.042 64.9459 228.33 64.8318 228.63 64.7631C228.806 64.7631 228.984 64.9625 228.984 65.345V65.6418H230.034L230.002 65.3149C229.961 64.9138 229.961 64.1812 229.961 63.4091C229.961 62.1851 230.041 60.8247 230.064 60.437L230.085 60.1217H229.089L229.07 60.3983Z" fill="#4E3E30"/>
<path d="M239.512 55.6209L241.047 60.0606H237.907L239.512 55.6209ZM245.399 64.1873L240.588 51.1603H239.94L235.193 64.1317C235.045 64.5492 234.947 64.6139 234.456 64.6325L233.386 64.6579V65.6549L233.697 65.6409C234.666 65.6012 236.545 65.5668 237.598 65.6409L237.921 65.6642V64.651H236.866C236.393 64.651 236.309 64.5397 236.306 64.5351C236.295 64.5189 236.292 64.4632 236.325 64.3705L237.544 61.0714H241.412L242.5 64.1666C242.573 64.3753 242.57 64.4911 242.545 64.5259C242.535 64.5421 242.46 64.6187 242.079 64.6326L240.986 64.658V65.6643L241.309 65.641C241.845 65.6013 243.017 65.6013 244.15 65.6013C245.303 65.6013 246.394 65.6197 246.876 65.641L247.187 65.6526V64.6579L246.12 64.6325C245.556 64.6139 245.523 64.5231 245.399 64.1873" fill="#4E3E30"/>
<path d="M261.186 63.1618L256.342 57.3936L260.058 53.4152C260.242 53.1279 260.504 52.8968 260.813 52.7475C261.121 52.5981 261.466 52.5364 261.808 52.5691L262.667 52.5393V51.5471L262.356 51.5586C261.35 51.5984 259.089 51.5957 257.868 51.5586L257.561 51.5493V52.5393L258.481 52.5691C258.711 52.561 258.94 52.6046 259.15 52.6966H259.152C259.135 52.7385 259.108 52.7764 259.075 52.8079C259.045 52.8426 256.244 55.7847 254.559 57.6301V52.7916C254.564 52.7376 254.564 52.6833 254.559 52.6293C254.761 52.5861 254.966 52.566 255.172 52.5691L256.202 52.5412V51.5512L255.895 51.5582C255.137 51.5768 254.213 51.598 253.165 51.598C252.135 51.598 251.087 51.5771 250.476 51.5582L250.167 51.5489V52.5412L251.218 52.5691C251.663 52.5806 251.77 52.6223 251.794 52.6432C251.811 52.6906 251.817 52.7413 251.812 52.7916V64.4068C251.812 64.4634 251.807 64.5199 251.798 64.5758C251.602 64.6215 251.401 64.6403 251.199 64.6314L250.167 64.657V65.6492L250.476 65.6423C251.922 65.6005 254.438 65.6025 255.893 65.6423L256.202 65.6492V64.657L255.17 64.6314C254.97 64.6309 254.77 64.6201 254.571 64.599C254.56 64.5425 254.556 64.4849 254.559 64.4275V59.3318L254.627 59.2576L258.727 64.2775C258.789 64.3487 258.841 64.4282 258.881 64.5138C258.86 64.5324 258.734 64.6159 258.228 64.6321L257.435 64.6619V65.6496L257.741 65.6426C258.621 65.6218 259.737 65.6029 260.83 65.6029C261.965 65.6029 263.013 65.6215 263.79 65.6426L264.096 65.6496V64.6636L263.411 64.6312C262.542 64.5942 262.386 64.5895 261.185 63.1614" fill="#4E3E30"/>
<path d="M277.336 61.6062C277.142 63.8063 275.96 64.6294 272.979 64.6503C272.771 64.6503 272.565 64.6456 272.368 64.641C272.186 64.6364 272.011 64.6318 271.854 64.6318H271.849C271.669 64.6271 271.292 64.6179 271.243 64.6062C271.235 64.5744 271.233 64.5415 271.236 64.5088V59.2369C271.239 59.1974 271.237 59.1575 271.229 59.1186C271.355 59.0985 271.483 59.0907 271.61 59.0955C273.236 59.0955 273.964 59.6866 273.964 61.0127V61.3095H274.982L274.961 60.9965C274.921 60.3195 274.9 59.4339 274.9 58.4995C274.9 57.5445 274.923 56.6356 274.961 56.0045L274.982 55.6892H273.964V55.9859C273.964 57.4906 273.281 58.105 271.61 58.105C271.487 58.0959 271.364 58.0944 271.241 58.1003C271.236 58.0679 271.236 57.9867 271.236 57.9195V52.6711C271.236 52.6224 271.238 52.5922 271.236 52.5853C271.386 52.5498 271.541 52.5373 271.695 52.5482C275.81 52.5482 276.486 52.9006 276.875 55.2353L276.915 55.4833H277.916L277.867 55.1471C277.811 54.7507 277.774 54.1595 277.734 53.5891L277.701 52.8588C277.689 52.5042 277.68 52.2306 277.68 52.0934C277.68 51.6135 277.353 51.5579 277.104 51.5579C276.999 51.5579 276.506 51.5602 275.806 51.5672C274.135 51.5788 271.295 51.597 269.839 51.597C268.854 51.597 267.909 51.5761 267.151 51.5573L266.844 51.5503V52.5402L267.874 52.5681C268.489 52.5843 268.489 52.589 268.489 52.8718V64.3883C268.489 64.5228 268.48 64.5645 268.484 64.5645C268.286 64.6202 268.08 64.6429 267.874 64.6318L266.844 64.6572V65.6564L267.16 65.6402C267.521 65.6217 268.557 65.6031 269.839 65.6031C272.532 65.6031 274.713 65.6171 277.173 65.6379L277.591 65.6402C278.02 65.6402 278.102 65.4455 278.102 65.0862C278.102 64.801 278.123 64.1797 278.163 63.5908V63.5885C278.212 62.8256 278.275 62.1812 278.352 61.6758L278.401 61.335H277.36L277.336 61.6062Z" fill="#4E3E30"/>
<path d="M288.925 57.4188L286.606 56.7001C284.72 56.1183 284.353 55.4552 284.353 54.507C284.379 54.1677 284.473 53.837 284.629 53.5342C284.785 53.2313 285.001 52.9624 285.263 52.743C285.526 52.5237 285.83 52.3584 286.157 52.2568C286.485 52.1551 286.83 52.1192 287.172 52.1511C289.38 52.1511 290.63 54.2538 290.684 56.2338L290.693 56.5211H291.702L291.681 56.2031C291.64 55.6583 291.62 54.8283 291.62 53.9288C291.616 53.2474 291.651 52.5663 291.723 51.8886L291.76 51.5571H290.759L290.729 51.8214C290.719 51.9187 290.668 52.2363 290.427 52.2389H290.413C290.081 52.1919 289.764 52.0706 289.486 51.8841C288.765 51.4376 287.935 51.1933 287.085 51.1771C286.495 51.1484 285.905 51.2385 285.351 51.4419C284.796 51.6453 284.289 51.9578 283.86 52.3604C283.431 52.7631 283.089 53.2478 282.854 53.7851C282.619 54.3224 282.496 54.9013 282.492 55.487C282.431 56.3734 282.695 57.252 283.236 57.9606C283.777 58.6692 284.558 59.16 285.436 59.3424L288.155 60.1956C289.832 60.7242 290.516 61.4406 290.516 62.6716C290.516 63.8609 289.105 64.9877 287.614 64.9877C285.2 64.9877 283.803 63.388 283.681 60.483L283.667 60.2002H282.659L282.682 60.5155C282.722 61.0743 282.743 61.8509 282.743 62.6507C282.743 63.4181 282.729 64.5008 282.664 65.3192L282.636 65.6415H283.6L283.653 65.4074C283.71 65.1546 283.805 65.0828 284.077 65.0828C284.365 65.1197 284.643 65.211 284.896 65.3517C285.758 65.7813 286.71 66.0044 287.675 66.0031C288.305 66.0351 288.935 65.9405 289.527 65.7248C290.119 65.5091 290.661 65.1769 291.12 64.7482C291.579 64.3195 291.945 63.8032 292.197 63.2303C292.45 62.6575 292.582 62.04 292.587 61.415C292.587 59.4722 291.424 58.2043 288.925 57.4181" fill="#4E3E30"/>
<path d="M41.3751 51.7314C40.7667 51.7314 40.1795 51.7129 39.7044 51.6916L39.3934 51.6777V52.6747L40.3528 52.7025C40.4933 52.7072 40.8254 52.7164 40.8699 52.7303C40.8845 52.7871 40.8893 52.8459 40.8839 52.9042V61.1248L34.2576 51.6867L33.7194 51.7029C33.1677 51.7191 32.732 51.7307 32.2476 51.7307C31.9177 51.7307 31.527 51.7191 31.1853 51.7076C30.9116 51.6983 30.6683 51.6913 30.5044 51.6913H30.2073V52.6743L31.183 52.7021C31.3492 52.7017 31.5151 52.715 31.6791 52.7419C31.6968 52.8013 31.7031 52.8634 31.6978 52.9251V64.5611C31.6978 64.6705 31.6931 64.7164 31.7071 64.7164C31.5346 64.7511 31.359 64.7674 31.183 64.7651L30.2073 64.7949V65.7849L30.9116 65.7617C31.3444 65.7478 31.7165 65.7362 32.2476 65.7362C32.7414 65.7362 33.0665 65.7455 33.4761 65.7594L34.4401 65.7826V64.7949L33.3265 64.7651C33.1337 64.7455 32.9399 64.7378 32.7462 64.742C32.7379 64.6821 32.7348 64.6216 32.7369 64.5611V53.8919L41.1112 65.8478L41.2 65.9753H41.923V52.9043C41.923 52.7977 41.9301 52.7466 41.9183 52.7398C42.0918 52.7136 42.2671 52.7019 42.4425 52.7049L43.4156 52.6751V51.6828L42.7885 51.7037C42.2831 51.7176 41.883 51.7315 41.3753 51.7315" fill="#4E3E30"/>
<path d="M48.2391 58.694C48.2391 53.4242 49.5729 52.3461 51.5734 52.3461C54.3788 52.3461 54.8726 54.4118 54.8726 58.7542C54.8726 63.5463 54.0654 65.0834 51.5548 65.0834C49.1681 65.0834 48.2391 63.2941 48.2391 58.694ZM51.5548 51.3121C48.5807 51.3121 45.4197 53.8786 45.4197 58.636C45.4197 63.1916 47.8367 66.1382 51.5734 66.1382C54.6199 66.1382 57.6897 63.8291 57.6897 58.6754C57.6897 54.34 55.1673 51.3121 51.5548 51.3121Z" fill="#4E3E30"/>
<path d="M71.1917 54.2389L71.1616 53.6126C71.15 53.2371 71.1315 52.8823 71.1195 52.6274C71.1101 52.4584 71.1054 52.3352 71.1031 52.2726C71.075 51.7955 70.9416 51.6699 70.3894 51.6699H70.3801C67.2822 51.7116 63.8263 51.7116 60.8337 51.6699C60.3493 51.6699 60.1481 51.7255 60.1153 52.2889C60.1153 52.4048 60.0942 52.9566 60.0591 53.5872L60.029 54.0624C60.0009 54.5307 59.9728 54.9898 59.9448 55.3167L59.9167 55.6389H60.8948L60.9041 55.3514C60.972 53.4712 61.8003 52.7038 63.7633 52.7038C64.2687 52.7038 64.2687 52.7336 64.2687 52.9265V64.5444C64.2687 64.6696 64.257 64.7113 64.2617 64.7133C64.0952 64.7509 63.9247 64.7681 63.754 64.7644L62.7735 64.7968V65.7845L63.0824 65.7753C63.768 65.7567 64.6642 65.7355 65.5041 65.7355C66.4143 65.7355 67.2753 65.7355 67.9937 65.7753L68.3096 65.7915V64.7968L67.3292 64.7644C67.1817 64.762 66.8753 64.7528 66.8354 64.7436C66.8181 64.6636 66.8118 64.5817 66.8168 64.5001V52.9453C66.8108 52.8848 66.8179 52.8238 66.8378 52.7663C66.8449 52.7594 66.9104 52.7037 67.3222 52.7037C69.4189 52.7037 70.2306 53.4641 70.3148 55.5113L70.3264 55.7965H71.3186L71.2741 55.4626C71.2366 55.1682 71.2156 54.7184 71.1923 54.2385" fill="#4E3E30"/>
<path d="M87.9469 51.6933C87.1186 51.7142 86.391 51.7305 85.5205 51.7305C84.5473 51.7305 83.5925 51.7119 82.8297 51.6907L82.5208 51.6837V52.6761L83.6931 52.7038C83.8648 52.6928 84.0371 52.714 84.2008 52.7664C84.2228 52.8305 84.2307 52.8985 84.2242 52.9658V57.918H77.895V52.9453C77.895 52.7992 77.895 52.7413 77.8856 52.7528C78.0632 52.7157 78.2446 52.6993 78.4261 52.7041L79.5984 52.6764V51.684L79.2919 51.691C77.7944 51.7308 75.5036 51.7328 74.1044 51.691L73.7957 51.6818V52.674L74.8322 52.7038C74.9988 52.7034 75.1653 52.7142 75.3305 52.7363C75.3458 52.8048 75.3513 52.8751 75.3469 52.9451V64.5444C75.3469 64.586 75.3469 64.7181 75.3656 64.7181H75.368C75.1916 64.753 75.012 64.7686 74.8322 64.7645L73.7957 64.7944V65.782L74.1044 65.7751C75.5435 65.738 77.7803 65.7403 79.2731 65.7751L79.5796 65.782V64.7944L78.4098 64.7645C78.2951 64.7623 77.9465 64.753 77.9066 64.7483C77.8967 64.687 77.8928 64.6249 77.895 64.5629V58.9314H84.2242V64.5628C84.2242 64.6721 84.2172 64.7135 84.2219 64.7157C84.0487 64.7507 83.8722 64.767 83.6954 64.7644L82.5208 64.7943V65.7819L82.8273 65.775C83.6299 65.7564 84.5074 65.7352 85.5205 65.7352C86.3979 65.7352 87.3502 65.7561 88.0171 65.775L88.326 65.7842V64.7943L87.287 64.7644C87.1373 64.7598 86.8237 64.7505 86.7886 64.7575C86.7779 64.6721 86.774 64.5861 86.777 64.5001V52.9453C86.777 52.7969 86.7886 52.7505 86.784 52.7505H86.7816C86.9483 52.7144 87.1189 52.6989 87.2894 52.7041L88.326 52.6743V51.9884L88.2534 51.687L87.9469 51.6933Z" fill="#4E3E30"/>
<path d="M93.6143 51.7313C92.5848 51.7313 91.8781 51.7128 91.2137 51.6916L90.9048 51.6823V52.6745L91.8617 52.7024C92.0355 52.6984 92.2089 52.7195 92.3765 52.765C92.396 52.816 92.4032 52.8707 92.3976 52.9249V64.5425C92.3976 64.6701 92.3882 64.7164 92.3976 64.7164C92.2214 64.7528 92.0416 64.7691 91.8617 64.7651L90.9048 64.7949V65.7849L91.2137 65.7756C91.8781 65.757 92.6245 65.7359 93.6143 65.7359C94.5874 65.7359 95.5399 65.7567 96.1717 65.7756L96.4806 65.7849V64.7949L95.5375 64.7651C95.3433 64.7604 95.0532 64.7512 95.0181 64.7512C95.0043 64.6825 94.9996 64.6123 95.004 64.5424V52.925C95.004 52.7952 95.0158 52.7512 95.0086 52.7512C95.1825 52.7154 95.36 52.699 95.5375 52.7025L96.4968 52.6747V51.6824L96.1879 51.6917C95.5211 51.7125 94.6624 51.7314 93.6142 51.7314" fill="#4E3E30"/>
<path d="M110.244 51.7314C109.635 51.7314 109.045 51.7129 108.573 51.6916L108.262 51.6777V52.6747L109.221 52.7025C109.362 52.7072 109.694 52.7164 109.738 52.7303C109.753 52.7871 109.758 52.8459 109.752 52.9042V61.1248L103.126 51.6867L102.588 51.7029C102.036 51.7191 101.6 51.7307 101.116 51.7307C100.786 51.7307 100.395 51.7191 100.054 51.7076C99.78 51.6983 99.5367 51.6913 99.3728 51.6913H99.0757V52.6743L100.051 52.7021C100.218 52.7007 100.384 52.7146 100.548 52.7439C100.568 52.8019 100.575 52.8636 100.569 52.9247V64.5608C100.564 64.6126 100.567 64.6647 100.575 64.716C100.403 64.7508 100.227 64.7672 100.051 64.7647L99.0757 64.7945V65.7845L99.78 65.7613C100.213 65.7474 100.585 65.7358 101.116 65.7358C101.61 65.7358 101.935 65.7451 102.344 65.759L103.308 65.7822V64.7945L102.195 64.7647C102.002 64.7451 101.808 64.7374 101.615 64.7416C101.606 64.6817 101.603 64.6212 101.605 64.5608V53.8919L109.979 65.8478L110.068 65.9753H110.791V52.9043C110.798 52.8495 110.796 52.7941 110.787 52.7398C110.96 52.7136 111.135 52.7019 111.311 52.7049L112.284 52.6751V51.6828L111.659 51.7037C111.154 51.7176 110.751 51.7315 110.244 51.7315" fill="#4E3E30"/>
<path d="M127.379 59.7156C126.396 59.7573 125.8 59.7759 124.848 59.7759C123.715 59.7759 123.044 59.7551 122.199 59.7156L121.886 59.7017V60.7404L123.058 60.7682C123.491 60.7797 123.559 60.8331 123.568 60.8448C123.57 60.8448 123.589 60.8725 123.589 61.0116V63.1445C123.557 63.4337 123.467 63.7137 123.325 63.9682C123.182 64.2227 122.991 64.4467 122.76 64.6272C122.53 64.8077 122.266 64.9411 121.983 65.0197C121.701 65.0983 121.405 65.1204 121.114 65.085C119.134 65.085 117.108 64.3385 117.108 58.7976C117.108 54.4552 118.388 52.3454 121.018 52.3454C122.044 52.4155 123.008 52.8617 123.721 53.5972C124.433 54.3326 124.844 55.3046 124.874 56.3238L124.897 56.5951H125.894L125.87 56.2775C125.821 55.6168 125.739 54.2535 125.739 53.347C125.739 53.0618 125.744 52.7535 125.751 52.4893C125.753 52.2852 125.758 52.109 125.758 51.9885V51.6916H124.783L124.759 51.9628C124.717 52.4612 124.656 52.5285 124.598 52.5285C124.289 52.4648 123.995 52.3411 123.734 52.1645C122.909 51.6429 121.959 51.3484 120.98 51.3113C117.758 51.3113 114.291 53.6413 114.291 58.7557C114.291 63.309 116.86 66.1374 120.999 66.1374C122.881 66.0708 124.674 65.3265 126.041 64.0439L126.142 63.9559V61.0115C126.137 60.9538 126.143 60.8959 126.158 60.84C126.17 60.8306 126.245 60.7796 126.673 60.7681L127.691 60.7403V59.7017L127.379 59.7156Z" fill="#4E3E30"/>
<path d="M296.611 50.6206H296.932C297.329 50.6206 297.638 50.5024 297.638 50.1941C297.638 49.9456 297.444 49.7559 296.983 49.7559C296.859 49.7526 296.735 49.7565 296.611 49.7674L296.611 50.6206ZM296.611 52.327H295.93V49.3641C296.269 49.3089 296.613 49.281 296.957 49.2806C297.341 49.2464 297.726 49.3289 298.061 49.517C298.158 49.5928 298.234 49.691 298.283 49.8031C298.332 49.9152 298.353 50.0376 298.342 50.1593C298.335 50.3264 298.27 50.486 298.158 50.611C298.046 50.736 297.894 50.8187 297.727 50.8452V50.8683C298.008 50.9169 298.188 51.1535 298.239 51.5917C298.258 51.8446 298.318 52.0928 298.417 52.3266H297.713C297.607 52.082 297.543 51.822 297.521 51.5569C297.469 51.2369 297.264 51.1048 296.919 51.1048H296.61L296.611 52.327ZM297.097 48.6407C296.511 48.6426 295.95 48.8748 295.537 49.2863C295.123 49.6978 294.892 50.255 294.893 50.8356C294.894 51.4162 295.127 51.9727 295.542 52.3829C295.956 52.7932 296.518 53.0236 297.104 53.0236C297.69 53.0236 298.252 52.7932 298.667 52.3829C299.082 51.9727 299.315 51.4162 299.316 50.8356C299.317 50.255 299.085 49.6978 298.672 49.2863C298.259 48.8748 297.697 48.6426 297.111 48.6407H297.097ZM297.123 48.1074C297.892 48.109 298.629 48.4129 299.172 48.9523C299.714 49.4918 300.019 50.2228 300.018 50.9845C300.017 51.7463 299.711 52.4767 299.167 53.0151C298.624 53.5534 297.886 53.8559 297.117 53.8559C296.349 53.8559 295.611 53.5534 295.067 53.0151C294.523 52.4767 294.217 51.7463 294.217 50.9845C294.216 50.2228 294.52 49.4918 295.063 48.9523C295.606 48.4129 296.343 48.109 297.111 48.1074H297.123Z" fill="#4E3E30"/>
<path d="M275.898 33.7821L275.435 33.2002C274.981 32.6275 274.512 32.0664 274.028 31.517L275.154 30.5428C275.493 30.9253 275.823 31.3148 276.148 31.7089C276.56 31.403 276.978 31.1048 277.402 30.8143L278.249 32.0362C277.648 32.4437 277.056 32.8754 276.485 33.3228L275.898 33.7821Z" fill="#4E3E30"/>
<path d="M247.07 17.59C245.662 17.4419 244.247 17.3645 242.83 17.3581L242.84 15.877C244.305 15.8841 245.77 15.9646 247.227 16.1182L247.07 17.59ZM235.78 17.9076L235.54 16.4471C236.987 16.2118 238.445 16.0486 239.908 15.9579L240.002 17.437C238.588 17.5238 237.179 17.6809 235.781 17.9076H235.78ZM254.003 18.9185C252.642 18.5362 251.262 18.2236 249.869 17.982L250.128 16.5213C251.572 16.7727 253.002 17.0978 254.412 17.4955L254.003 18.9185ZM228.934 19.6349L228.443 18.2346C229.828 17.7573 231.238 17.351 232.666 17.0176L233.008 18.4595C231.63 18.7817 230.271 19.174 228.934 19.6349H228.934ZM260.611 21.3992C259.335 20.7923 258.028 20.2507 256.696 19.7764L257.201 18.3831C258.582 18.8728 259.935 19.4339 261.256 20.0639L260.611 21.3992ZM222.481 22.4865L221.758 21.1905C223.04 20.487 224.359 19.8494 225.707 19.2802L226.292 20.6434C224.991 21.1939 223.719 21.8091 222.481 22.4865ZM266.697 24.951C265.542 24.1398 264.348 23.3869 263.117 22.6951L263.854 21.4061C265.129 22.1218 266.367 22.9018 267.562 23.743L266.697 24.951ZM216.606 26.3814L215.672 25.2244C216.817 24.3172 218.008 23.4684 219.241 22.6812L220.05 23.9261C218.861 24.6868 217.712 25.5063 216.606 26.3814ZM272.097 29.4694C271.098 28.4771 270.047 27.5362 268.95 26.6504L269.893 25.5004C271.03 26.419 272.118 27.3939 273.155 28.4215L272.097 29.4694Z" fill="#4E3E30"/>
<path d="M212.196 30.4005L211.686 29.6378C211.277 29.0304 210.858 28.4322 210.423 27.8411L211.632 26.9694C211.899 27.3333 212.164 27.702 212.421 28.0727C212.749 27.7551 213.08 27.4436 213.415 27.1383L214.426 28.2304C213.885 28.7218 213.357 29.228 212.842 29.749L212.196 30.4005Z" fill="#4E3E30"/>
<path d="M170.2 6.37529C168.731 6.31038 167.241 6.30571 165.769 6.36137L165.71 4.88216C167.222 4.82431 168.759 4.82888 170.268 4.89618L170.2 6.37529ZM158.429 7.14964L158.167 5.6913C159.659 5.42699 161.18 5.22073 162.682 5.08156L162.823 6.55382C161.361 6.69059 159.882 6.89228 158.429 7.14964H158.429ZM177.531 7.20987C176.085 6.94099 174.611 6.73274 173.146 6.58622L173.296 5.11407C174.801 5.26248 176.319 5.47798 177.807 5.75164L177.531 7.20987ZM151.274 8.95101L150.806 7.54605C152.25 7.0731 153.726 6.65809 155.191 6.31038L155.539 7.75003C154.115 8.08849 152.68 8.49197 151.274 8.95101H151.274ZM184.668 9.05041C183.28 8.5867 181.851 8.17408 180.421 7.82627L180.777 6.38652C182.249 6.74586 183.718 7.17011 185.148 7.64774L184.668 9.05041ZM144.451 11.733L143.786 10.407C145.143 9.73927 146.545 9.12019 147.951 8.5708L148.501 9.95021C147.132 10.4834 145.77 11.0834 144.451 11.733ZM191.476 11.8722C190.162 11.2184 188.804 10.6086 187.44 10.0661L187.997 8.69137C189.401 9.25011 190.798 9.87605 192.148 10.5502L191.476 11.8722ZM138.086 15.4355L137.242 14.2137C138.491 13.3652 139.79 12.5584 141.105 11.8189L141.842 13.1078C140.564 13.8266 139.301 14.6102 138.086 15.4355ZM197.815 15.6145C196.608 14.7845 195.349 13.9915 194.074 13.2636L194.82 11.9792C196.133 12.7304 197.427 13.5417 198.667 14.3973L197.815 15.6145ZM132.305 19.9823L131.296 18.888C132.413 17.8772 133.585 16.9011 134.785 15.9831L135.698 17.1585C134.531 18.0487 133.391 18.9992 132.305 19.9823H132.305ZM203.567 20.1956C202.486 19.2033 201.349 18.2459 200.193 17.3509L201.113 16.1825C202.304 17.1028 203.471 18.0882 204.585 19.106L203.567 20.1956ZM127.219 25.2798L126.067 24.336C127.031 23.1815 128.056 22.0524 129.113 20.9813L130.182 22.0176C129.153 23.0586 128.156 24.1575 127.218 25.2796L127.219 25.2798ZM208.621 25.523C207.689 24.3939 206.699 23.2904 205.679 22.2427L206.753 21.211C207.804 22.2914 208.824 23.425 209.779 24.5866L208.621 25.523Z" fill="#4E3E30"/>
<path d="M123.607 30.1444L122.966 29.5068C122.449 28.9921 121.917 28.4905 121.37 28.0021L122.372 26.9032C122.713 27.2093 123.05 27.5199 123.382 27.8352C123.645 27.462 123.911 27.0926 124.183 26.727L125.388 27.6057C124.95 28.1946 124.526 28.7919 124.115 29.3978L123.607 30.1444Z" fill="#4E3E30"/>
<path d="M88.9408 17.5938L88.7818 16.1215C90.2281 15.9676 91.6812 15.8856 93.1358 15.8758L93.1475 17.3569C91.742 17.3659 90.3379 17.4448 88.9404 17.5934L88.9408 17.5938ZM100.141 17.8901C98.7654 17.6698 97.3568 17.5145 95.9552 17.431L96.0442 15.9519C97.4973 16.04 98.9549 16.1977 100.382 16.4272L100.141 17.8901ZM82.05 18.9152L81.643 17.4917C83.0435 17.0985 84.4632 16.7758 85.8967 16.525L86.1564 17.9855C84.7726 18.2265 83.402 18.5368 82.0499 18.9152H82.05ZM106.946 19.576C105.617 19.1256 104.266 18.7426 102.898 18.4284L103.235 16.984C104.653 17.3104 106.053 17.7082 107.43 18.1757L106.946 19.576ZM75.4845 21.3728L74.8387 20.035C76.1533 19.4137 77.4989 18.8589 78.8702 18.3727L79.3733 19.7661C78.0504 20.2361 76.7525 20.7724 75.4845 21.3728ZM113.369 22.3767C112.134 21.7105 110.867 21.1062 109.571 20.5661L110.151 19.2005C111.493 19.7599 112.806 20.3859 114.085 21.0761L113.369 22.3767ZM69.4314 24.8897L68.568 23.677C69.7583 22.8468 70.9898 22.0761 72.2579 21.3679L72.9926 22.6568C71.7678 23.3405 70.5791 24.0857 69.4312 24.8895L69.4314 24.8897ZM119.223 26.2063C118.125 25.3486 116.97 24.5371 115.788 23.7908L116.59 22.5411C117.819 23.3157 119.006 24.1514 120.149 25.045L119.223 26.2063ZM64.0543 29.3594L62.999 28.3092C64.0322 27.2931 65.1161 26.329 66.2466 25.4204L67.1897 26.5703C66.0982 27.4476 65.0518 28.3784 64.0543 29.3594Z" fill="#4E3E30"/>
<path d="M60.2281 33.6721L59.6431 33.2202C59.0675 32.775 58.4771 32.3492 57.8718 31.9427L58.7095 30.7162C59.14 31.0038 59.5612 31.3027 59.9777 31.6088C60.3029 31.2124 60.636 30.8229 60.9768 30.4404L62.1004 31.4188C61.6161 31.9659 61.1458 32.5246 60.6896 33.0949L60.2281 33.6721Z" fill="#4E3E30"/>
<path d="M37.1866 26.4866L37.0743 25.0098C38.592 24.8984 40.1154 24.8868 41.6346 24.975L41.5455 26.4518C40.0933 26.3683 38.6371 26.3799 37.1864 26.4866H37.1866ZM48.6961 27.669C47.2982 27.2681 45.8747 26.9606 44.4352 26.7486L44.6574 25.2833C46.1625 25.505 47.6508 25.8265 49.1125 26.2455L48.6961 27.669ZM30.0546 27.8127L29.6171 26.3962C31.0717 25.9545 32.5546 25.6098 34.0557 25.3645L34.2991 26.8251C32.8636 27.0604 31.4457 27.3903 30.0546 27.8127ZM55.3949 30.4325C54.1226 29.7342 52.8047 29.1208 51.45 28.5964L51.9928 27.2147C53.4104 27.7643 54.7892 28.4072 56.1203 29.139L55.3949 30.4325ZM23.3978 30.676L22.6537 29.3915C23.9745 28.641 25.344 27.9782 26.7534 27.4075L27.3173 28.7801C25.9696 29.3247 24.6602 29.9583 23.398 30.6765L23.3978 30.676ZM17.5486 34.9323L16.5353 33.8428C17.6553 32.8214 18.8426 31.875 20.0895 31.0099L20.9459 32.2247C19.7536 33.051 18.6187 33.9556 17.5486 34.9323ZM12.7893 40.3573L11.5585 39.5157C12.4235 38.2767 13.3701 37.0956 14.3921 35.9802L15.4988 36.9771C14.522 38.0439 13.6168 39.173 12.7893 40.3573ZM9.35909 46.6892L7.96923 46.1375C8.53577 44.7393 9.19554 43.38 9.94416 42.0685L11.2451 42.7988C10.5299 44.0526 9.89981 45.3522 9.35909 46.689V46.6892ZM7.43331 53.6187L5.95698 53.3869C6.19413 51.8978 6.5318 50.4262 6.96772 48.982L8.39971 49.4085C7.98305 50.7889 7.66019 52.1955 7.43331 53.6187ZM5.61026 60.8984C5.56345 60.1658 5.54004 59.4286 5.54004 58.6867C5.54004 57.9101 5.56575 57.1419 5.61719 56.3822L7.11007 56.4796C7.06092 57.2099 7.03597 57.9455 7.03523 58.6863C7.03523 59.3958 7.0562 60.1005 7.10305 60.8006L5.61026 60.8984ZM6.94204 68.2988C6.50943 66.8528 6.17564 65.3796 5.94293 63.8892L7.41937 63.6643C7.64295 65.0881 7.96265 66.4954 8.37634 67.8768L6.94204 68.2988ZM9.89952 75.2261C9.15345 73.9109 8.49682 72.5477 7.93402 71.1458L9.32398 70.599C9.86113 71.94 10.4888 73.2435 11.2028 74.5008L9.89952 75.2261ZM14.3359 81.3258C13.315 80.2087 12.3706 79.0252 11.5092 77.7833L12.7399 76.944C13.5653 78.1316 14.4688 79.264 15.4447 80.3336L14.3359 81.3258ZM20.0147 86.3126C18.7717 85.4439 17.5883 84.4945 16.4721 83.4706L17.4876 82.3833C18.5555 83.3618 19.6873 84.2694 20.8756 85.1005L20.0147 86.3126ZM26.6644 89.9293C25.2585 89.355 23.8929 88.6881 22.5768 87.9332L23.3255 86.6509C24.5836 87.372 25.889 88.0087 27.233 88.5567L26.6644 89.9293ZM51.9065 90.189L51.3659 88.8095C52.7227 88.2882 54.043 87.678 55.3179 86.9827L56.0409 88.2787C54.7074 89.0064 53.3262 89.6446 51.9065 90.189ZM33.9623 91.9904C32.4605 91.7444 30.9775 91.3966 29.5237 90.9495L29.9659 89.5329C31.3546 89.9604 32.7712 90.2935 34.2057 90.5298L33.9623 91.9904ZM44.5641 92.104L44.3488 90.6365C45.788 90.4293 47.2114 90.1264 48.6096 89.73L49.0215 91.1534C47.559 91.5693 46.0698 91.8869 44.5641 92.104ZM39.6224 92.4566C38.7426 92.4566 37.8535 92.4242 36.9784 92.3546L37.0929 90.8801C38.5443 90.9886 40.0012 91.0033 41.4544 90.9241L41.5386 92.4033C40.9046 92.438 40.2659 92.4558 39.6225 92.4566" fill="#4E3E30"/>
<path d="M60.9764 86.9314C60.637 86.549 60.3024 86.1595 59.9773 85.763C59.5608 86.0712 59.1396 86.3681 58.709 86.6556L57.8713 85.4292C58.4774 85.0234 59.0678 84.5976 59.6426 84.1517L60.23 83.702L60.6886 84.2793C61.1448 84.8496 61.6151 85.4076 62.0994 85.9531L60.9764 86.9314Z" fill="#4E3E30"/>
<path d="M66.2303 91.9397C65.0968 91.0279 64.0105 90.0599 62.9756 89.0394L64.031 87.9891C65.03 88.9754 66.0788 89.911 67.1732 90.7923L66.2303 91.9397ZM116.724 94.7428L115.917 93.4955C117.104 92.7401 118.251 91.926 119.356 91.0566L120.285 92.2181C119.146 93.1127 117.948 93.9638 116.724 94.743L116.724 94.7428ZM72.2578 96.0053C70.9857 95.2952 69.7511 94.5214 68.5585 93.6869L69.4219 92.4767C70.573 93.2827 71.7647 94.0302 72.9924 94.7163L72.2578 96.0053ZM110.275 98.115L109.69 96.7518C110.989 96.2073 112.258 95.5968 113.493 94.9228L114.216 96.2188C112.936 96.9181 111.621 97.5511 110.275 98.1152V98.115ZM78.8934 99.0077C77.517 98.5211 76.1667 97.9648 74.8479 97.3408L75.4937 96.0032C76.7654 96.6056 78.0673 97.1434 79.3942 97.6145L78.8934 99.0077ZM103.34 100.362L102.998 98.922C104.372 98.6022 105.727 98.213 107.06 97.7558L107.549 99.1562C106.168 99.6289 104.763 100.031 103.34 100.362ZM85.941 100.853C84.5019 100.605 83.0766 100.283 81.6708 99.889L82.078 98.4633C83.4346 98.843 84.8099 99.1541 86.1985 99.3953L85.941 100.853ZM96.1216 101.417L96.0304 99.9374C97.4382 99.8512 98.8407 99.6949 100.233 99.4691L100.476 100.93C99.034 101.165 97.5808 101.328 96.1221 101.417L96.1216 101.417ZM93.202 101.496C91.742 101.489 90.2831 101.41 88.8312 101.257L88.988 99.785C90.3825 99.931 91.8052 100.008 93.2091 100.014L93.202 101.496Z" fill="#4E3E30"/>
<path d="M124.351 90.4802C124.077 90.1163 123.808 89.7485 123.544 89.3768C123.214 89.6944 122.878 90.0066 122.538 90.3134L121.531 89.2192C122.074 88.73 122.603 88.2261 123.118 87.7075L123.757 87.0653L124.267 87.8119C124.683 88.4146 125.111 89.0089 125.549 89.5947L124.351 90.4802Z" fill="#4E3E30"/>
<path d="M206.575 95.9641L205.503 94.9303C206.521 93.8941 207.513 92.802 208.447 91.6823L209.6 92.6235C208.639 93.7758 207.621 94.8998 206.575 95.9643L206.575 95.9641ZM129.263 96.1568C128.205 95.0903 127.18 93.9729 126.221 92.8321L127.367 91.8817C128.303 92.9922 129.298 94.0818 130.329 95.1182L129.263 96.1568ZM200.941 100.942L200.026 99.769C201.191 98.8763 202.323 97.93 203.393 96.9568L204.404 98.0464C203.304 99.0479 202.139 100.022 200.941 100.942V100.942ZM134.923 101.107C133.722 100.195 132.552 99.2264 131.443 98.2295L132.449 97.1353C133.528 98.1044 134.665 99.0456 135.83 99.9312L134.923 101.107ZM194.665 105.099L193.924 103.815C195.187 103.098 196.442 102.314 197.653 101.489L198.5 102.711C197.253 103.559 195.964 104.364 194.665 105.099ZM141.214 105.231C139.904 104.496 138.61 103.699 137.368 102.859L138.212 101.635C139.417 102.451 140.676 103.228 141.951 103.942L141.214 105.231ZM187.868 108.352L187.314 106.972C188.673 106.437 190.025 105.836 191.333 105.187L192.003 106.513C190.657 107.181 189.267 107.798 187.868 108.352ZM148.028 108.444C146.624 107.898 145.232 107.287 143.886 106.629L144.549 105.301C145.857 105.94 147.211 106.534 148.575 107.067L148.028 108.444ZM180.673 110.626L180.32 109.189C181.733 108.845 183.158 108.44 184.555 107.976L185.028 109.381C183.593 109.856 182.128 110.275 180.674 110.626L180.673 110.626ZM155.226 110.686C153.768 110.343 152.303 109.931 150.869 109.462L151.337 108.055C152.731 108.511 154.156 108.91 155.572 109.244L155.226 110.686ZM173.228 111.882L173.081 110.41C174.539 110.264 176.006 110.058 177.447 109.796L177.718 111.252C176.237 111.523 174.728 111.734 173.228 111.882H173.228ZM162.671 111.906C161.173 111.764 159.664 111.56 158.185 111.298L158.447 109.84C159.886 110.095 161.356 110.294 162.813 110.431L162.671 111.906ZM167.823 112.147C167.107 112.144 166.393 112.133 165.686 112.105L165.745 110.624C167.205 110.682 168.688 110.679 170.153 110.615L170.216 112.096C169.423 112.128 168.625 112.147 167.822 112.147" fill="#4E3E30"/>
<path d="M211.472 90.2444L210.269 89.3681C210.704 88.7792 211.128 88.1819 211.54 87.576L212.052 86.8178L212.696 87.4717C213.208 87.9956 213.734 88.5041 214.273 88.9971L213.257 90.0845C212.923 89.7763 212.593 89.4654 212.265 89.1455C212.005 89.5166 211.741 89.8829 211.472 90.2444Z" fill="#4E3E30"/>
<path d="M269.842 91.9131L268.899 90.7654C269.998 89.8775 271.063 88.9269 272.06 87.9417L273.115 88.9896C272.075 90.0187 270.982 90.9944 269.842 91.9131H269.842ZM219.042 94.5607C217.813 93.7655 216.615 92.903 215.476 91.9919L216.416 90.8396C217.516 91.7183 218.672 92.5529 219.858 93.3203L219.042 94.5607ZM263.772 96.012L263.04 94.7206C264.277 94.0288 265.478 93.2759 266.639 92.4648L267.5 93.675C266.298 94.5163 265.054 95.2963 263.772 96.012H263.772ZM225.51 98.0058C224.16 97.4274 222.841 96.7813 221.558 96.07L222.288 94.7763C223.526 95.4636 224.799 96.0881 226.102 96.6472L225.51 98.0058ZM257.09 99.0305L256.587 97.6372C257.925 97.1618 259.248 96.6194 260.52 96.0189L261.164 97.3543C259.836 97.9819 258.476 98.5414 257.09 99.0305ZM232.475 100.31C231.045 99.9683 229.634 99.5543 228.247 99.0699L228.743 97.6719C230.082 98.14 231.444 98.5393 232.824 98.8683L232.475 100.31ZM249.984 100.876L249.729 99.4154C251.128 99.1781 252.514 98.8685 253.88 98.4881L254.285 99.9138C252.869 100.307 251.433 100.628 249.984 100.876ZM239.731 101.405C238.263 101.308 236.801 101.138 235.351 100.895L235.602 99.4339C237.002 99.6689 238.413 99.8329 239.83 99.9254L239.731 101.405ZM242.668 101.497L242.665 100.016C244.085 100.015 245.504 99.9419 246.917 99.7982L247.071 101.27C245.608 101.419 244.139 101.495 242.668 101.498" fill="#4E3E30"/>
<path d="M275.155 86.8304L274.027 85.8544C274.511 85.3072 274.981 84.747 275.435 84.1735L275.899 83.5894L276.486 84.0507C277.059 84.4981 277.647 84.927 278.25 85.3374L277.403 86.5592C276.977 86.2694 276.559 85.9703 276.147 85.6619C275.824 86.0584 275.492 86.4479 275.155 86.8304Z" fill="#4E3E30"/>
<path d="M299.048 26.4843C297.593 26.3793 296.133 26.3693 294.677 26.4544L294.588 24.9776C296.11 24.8878 297.637 24.8978 299.157 25.0074L299.048 26.4843ZM287.508 27.6852L287.091 26.2618C288.556 25.8394 290.047 25.5149 291.555 25.2903L291.778 26.7555C290.335 26.9698 288.908 27.2804 287.507 27.6852H287.508ZM306.196 27.8104C304.802 27.3871 303.381 27.0572 301.942 26.8227L302.185 25.3622C303.69 25.6066 305.176 25.9513 306.633 26.3938L306.196 27.8104ZM280.799 30.4696L280.071 29.176C281.404 28.4399 282.784 27.7932 284.204 27.2401L284.751 28.6195C283.393 29.1473 282.073 29.7654 280.799 30.4696ZM312.864 30.6805C311.601 29.9596 310.29 29.3244 308.94 28.7796L309.507 27.407C310.917 27.9787 312.287 28.6424 313.608 29.3939L312.864 30.6805ZM318.723 34.9464C317.652 33.9664 316.515 33.0586 315.321 32.2292L316.18 31.0165C317.428 31.8836 318.616 32.8324 319.736 33.8566L318.723 34.9464ZM323.492 40.39C322.664 39.2 321.757 38.0661 320.777 36.9958L321.884 36.0018C322.909 37.1203 323.857 38.3053 324.722 39.5489L323.492 40.39ZM326.924 46.7471C326.384 45.4038 325.754 44.0979 325.038 42.8382L326.339 42.1125C327.089 43.4291 327.748 44.794 328.314 46.198L326.924 46.7471ZM328.836 53.6953C328.612 52.2686 328.292 50.8583 327.879 49.4736L329.314 49.0516C329.745 50.5011 330.08 51.9773 330.315 53.4705L328.836 53.6953ZM330.64 60.9983L329.147 60.8963C329.196 60.166 329.224 59.4288 329.224 58.6868C329.224 57.9751 329.201 57.2688 329.154 56.5679L330.645 56.4685C330.696 57.2011 330.72 57.9406 330.72 58.6871C330.72 59.4638 330.691 60.2334 330.64 60.9985L330.64 60.9983ZM329.283 68.4128L327.851 67.9862C328.27 66.6031 328.594 65.1934 328.82 63.7667L330.298 63.9985C330.059 65.4907 329.72 66.9654 329.283 68.4128ZM326.292 75.3395L324.994 74.607C325.713 73.3512 326.346 72.0492 326.889 70.7097L328.277 71.2638C327.707 72.6645 327.045 74.026 326.292 75.3393V75.3395ZM321.826 81.4343L320.721 80.4378C321.702 79.3679 322.612 78.2356 323.445 77.0482L324.673 77.8944C323.803 79.135 322.852 80.3176 321.825 81.4345L321.826 81.4343ZM316.105 86.4076L315.25 85.1927C316.446 84.3647 317.586 83.4601 318.662 82.4848L319.673 83.5745C318.547 84.5954 317.355 85.5418 316.105 86.4075V86.4076ZM309.418 90.0014L308.858 88.6265C310.21 88.0838 311.523 87.4526 312.789 86.7371L313.531 88.0214C312.207 88.7725 310.832 89.434 309.418 90.0014H309.418ZM284.122 90.0987C282.703 89.5433 281.323 88.8934 279.992 88.1536L280.725 86.8622C281.996 87.5691 283.314 88.1902 284.669 88.7211L284.122 90.0987ZM302.087 92.0276L301.85 90.5646C303.29 90.3344 304.711 90.009 306.107 89.5904L306.54 91.0093C305.08 91.4474 303.592 91.7874 302.087 92.0271L302.087 92.0276ZM291.464 92.0668C289.956 91.8392 288.465 91.5108 287.002 91.084L287.425 89.6625C288.824 90.0697 290.248 90.3842 291.689 90.6038L291.464 92.0668ZM296.57 92.4564C295.872 92.4564 295.182 92.4355 294.494 92.3915L294.588 90.9124C295.264 90.9541 295.9 90.9726 296.635 90.975C297.417 90.975 298.19 90.9479 298.956 90.8938L299.061 92.3729C298.238 92.4309 297.395 92.4425 296.57 92.4564Z" fill="#4E3E30"/>
</g>
<defs>
<clipPath id="clip0_825_9775">
<rect width="336" height="118" fill="white"/>
</clipPath>
</defs>
</svg>
